<svg xmlns="http://www.w3.org/2000/svg" width="246.106" height="242.83" viewBox="0 0 246.106 242.83">
    <g id="Group_59" data-name="Group 59" transform="translate(-613.125 -47.941)">
        <g id="Group_52" data-name="Group 52">
            <g id="Group_51" data-name="Group 51">
                <circle id="Ellipse_13" data-name="Ellipse 13" cx="29.47" cy="29.47" r="29.47" transform="translate(677.193 229.11)" fill="#fff" stroke="#1c1c1c" stroke-miterlimit="10" stroke-width="5.444"/>
            </g>
            <circle id="Ellipse_14" data-name="Ellipse 14" cx="14.428" cy="14.428" r="14.428" transform="translate(692.235 244.152)" fill="#28a9ab"/>
        </g>
        <g id="Group_54" data-name="Group 54">
            <g id="Group_53" data-name="Group 53">
                <circle id="Ellipse_15" data-name="Ellipse 15" cx="29.47" cy="29.47" r="29.47" transform="translate(677.193 170.644)" fill="#fff" stroke="#1c1c1c" stroke-miterlimit="10" stroke-width="5.444"/>
            </g>
            <circle id="Ellipse_16" data-name="Ellipse 16" cx="14.428" cy="14.428" r="14.428" transform="translate(692.235 185.686)" fill="#28a9ab"/>
        </g>
        <g id="Group_56" data-name="Group 56">
            <g id="Group_55" data-name="Group 55">
                <circle id="Ellipse_17" data-name="Ellipse 17" cx="29.47" cy="29.47" r="29.47" transform="translate(677.193 110.913)" fill="#fff" stroke="#1c1c1c" stroke-miterlimit="10" stroke-width="5.444"/>
            </g>
            <circle id="Ellipse_18" data-name="Ellipse 18" cx="14.428" cy="14.428" r="14.428" transform="translate(692.235 125.955)" fill="#28a9ab"/>
        </g>
        <circle id="Ellipse_19" data-name="Ellipse 19" cx="29.47" cy="29.47" r="29.47" transform="translate(615.847 229.11)" fill="#fff" stroke="#1c1c1c" stroke-miterlimit="10" stroke-width="5.444"/>
        <circle id="Ellipse_20" data-name="Ellipse 20" cx="14.428" cy="14.428" r="14.428" transform="translate(630.889 244.152)" fill="#28a9ab"/>
        <circle id="Ellipse_21" data-name="Ellipse 21" cx="6.651" cy="6.651" r="6.651" transform="translate(668.775 252.068)" fill="#f6c453" stroke="#fff" stroke-miterlimit="10" stroke-width="2.178"/>
        <circle id="Ellipse_22" data-name="Ellipse 22" cx="29.47" cy="29.47" r="29.47" transform="translate(617.93 170.644)" fill="#fff" stroke="#1c1c1c" stroke-miterlimit="10" stroke-width="5.444"/>
        <circle id="Ellipse_23" data-name="Ellipse 23" cx="14.428" cy="14.428" r="14.428" transform="translate(632.972 185.686)" fill="#28a9ab"/>
        <circle id="Ellipse_24" data-name="Ellipse 24" cx="6.651" cy="6.651" r="6.651" transform="translate(669.858 193.602)" fill="#f6c453" stroke="#fff" stroke-miterlimit="10" stroke-width="2.178"/>
        <circle id="Ellipse_25" data-name="Ellipse 25" cx="29.47" cy="29.47" r="29.47" transform="translate(616.611 110.913)" fill="#fff" stroke="#1c1c1c" stroke-miterlimit="10" stroke-width="5.444"/>
        <circle id="Ellipse_26" data-name="Ellipse 26" cx="14.428" cy="14.428" r="14.428" transform="translate(631.653 125.955)" fill="#28a9ab"/>
        <circle id="Ellipse_27" data-name="Ellipse 27" cx="6.651" cy="6.651" r="6.651" transform="translate(668.539 133.778)" fill="#f6c453" stroke="#fff" stroke-miterlimit="10" stroke-width="2.178"/>
        <g id="Group_58" data-name="Group 58">
            <g id="Group_57" data-name="Group 57">
                <circle id="Ellipse_28" data-name="Ellipse 28" cx="29.47" cy="29.47" r="29.47" transform="translate(677.193 52.354)" fill="#fff" stroke="#1c1c1c" stroke-miterlimit="10" stroke-width="5.444"/>
            </g>
            <circle id="Ellipse_29" data-name="Ellipse 29" cx="14.428" cy="14.428" r="14.428" transform="translate(692.235 67.396)" fill="#28a9ab"/>
        </g>
        <circle id="Ellipse_30" data-name="Ellipse 30" cx="29.47" cy="29.47" r="29.47" transform="translate(618.694 52.354)" fill="#fff" stroke="#1c1c1c" stroke-miterlimit="10" stroke-width="5.444"/>
        <circle id="Ellipse_31" data-name="Ellipse 31" cx="14.428" cy="14.428" r="14.428" transform="translate(633.736 67.396)" fill="#28a9ab"/>
        <circle id="Ellipse_32" data-name="Ellipse 32" cx="6.651" cy="6.651" r="6.651" transform="translate(640.749 104.165)" fill="#f6c453" stroke="#fff" stroke-miterlimit="10" stroke-width="2.178"/>
        <circle id="Ellipse_33" data-name="Ellipse 33" cx="6.651" cy="6.651" r="6.651" transform="translate(670.986 72.555)" fill="#f6c453" stroke="#fff" stroke-miterlimit="10" stroke-width="2.178"/>
        <circle id="Ellipse_34" data-name="Ellipse 34" cx="6.651" cy="6.651" r="6.651" transform="translate(639.43 163.551)" fill="#f6c453" stroke="#fff" stroke-miterlimit="10" stroke-width="2.178"/>
        <circle id="Ellipse_35" data-name="Ellipse 35" cx="6.651" cy="6.651" r="6.651" transform="translate(639.43 222.455)" fill="#f6c453" stroke="#fff" stroke-miterlimit="10" stroke-width="2.178"/>
        <circle id="Ellipse_36" data-name="Ellipse 36" cx="6.651" cy="6.651" r="6.651" transform="translate(700.672 104.944)" fill="#f6c453" stroke="#fff" stroke-miterlimit="10" stroke-width="2.178"/>
        <circle id="Ellipse_37" data-name="Ellipse 37" cx="6.651" cy="6.651" r="6.651" transform="translate(699.353 164.329)" fill="#f6c453" stroke="#fff" stroke-miterlimit="10" stroke-width="2.178"/>
        <circle id="Ellipse_38" data-name="Ellipse 38" cx="6.651" cy="6.651" r="6.651" transform="translate(699.353 223.233)" fill="#f6c453" stroke="#fff" stroke-miterlimit="10" stroke-width="2.178"/>
        <circle id="Ellipse_39" data-name="Ellipse 39" cx="29.47" cy="29.47" r="29.47" transform="translate(736.141 228.764)" fill="#fff" stroke="#1c1c1c" stroke-miterlimit="10" stroke-width="5.444"/>
        <circle id="Ellipse_40" data-name="Ellipse 40" cx="29.47" cy="29.47" r="29.47" transform="translate(794.723 227.419)" fill="#fff" stroke="#1c1c1c" stroke-miterlimit="10" stroke-width="5.444"/>
        <circle id="Ellipse_41" data-name="Ellipse 41" cx="14.428" cy="14.428" r="14.428" transform="translate(809.765 242.461)" fill="#28a9ab"/>
        <circle id="Ellipse_42" data-name="Ellipse 42" cx="29.47" cy="29.47" r="29.47" transform="translate(796.806 168.953)" fill="#fff" stroke="#1c1c1c" stroke-miterlimit="10" stroke-width="5.444"/>
        <circle id="Ellipse_43" data-name="Ellipse 43" cx="14.428" cy="14.428" r="14.428" transform="translate(811.848 183.995)" fill="#28a9ab"/>
        <circle id="Ellipse_44" data-name="Ellipse 44" cx="29.47" cy="29.47" r="29.47" transform="translate(795.487 109.222)" fill="#fff" stroke="#1c1c1c" stroke-miterlimit="10" stroke-width="5.444"/>
        <circle id="Ellipse_45" data-name="Ellipse 45" cx="14.428" cy="14.428" r="14.428" transform="translate(810.529 124.264)" fill="#28a9ab"/>
        <circle id="Ellipse_46" data-name="Ellipse 46" cx="29.47" cy="29.47" r="29.47" transform="translate(797.57 50.663)" fill="#fff" stroke="#1c1c1c" stroke-miterlimit="10" stroke-width="5.444"/>
        <circle id="Ellipse_47" data-name="Ellipse 47" cx="14.428" cy="14.428" r="14.428" transform="translate(812.612 65.705)" fill="#28a9ab"/>
        <circle id="Ellipse_48" data-name="Ellipse 48" cx="6.651" cy="6.651" r="6.651" transform="translate(819.625 102.474)" fill="#f6c453" stroke="#fff" stroke-miterlimit="10" stroke-width="2.178"/>
        <circle id="Ellipse_49" data-name="Ellipse 49" cx="6.651" cy="6.651" r="6.651" transform="translate(818.306 161.86)" fill="#f6c453" stroke="#fff" stroke-miterlimit="10" stroke-width="2.178"/>
        <circle id="Ellipse_50" data-name="Ellipse 50" cx="6.651" cy="6.651" r="6.651" transform="translate(818.306 220.764)" fill="#f6c453" stroke="#fff" stroke-miterlimit="10" stroke-width="2.178"/>
        <circle id="Ellipse_51" data-name="Ellipse 51" cx="14.428" cy="14.428" r="14.428" transform="translate(751.183 243.806)" fill="#28a9ab"/>
        <circle id="Ellipse_52" data-name="Ellipse 52" cx="6.651" cy="6.651" r="6.651" transform="translate(788.068 251.723)" fill="#f6c453" stroke="#fff" stroke-miterlimit="10" stroke-width="2.178"/>
        <circle id="Ellipse_53" data-name="Ellipse 53" cx="29.47" cy="29.47" r="29.47" transform="translate(738.224 170.298)" fill="#fff" stroke="#1c1c1c" stroke-miterlimit="10" stroke-width="5.444"/>
        <circle id="Ellipse_54" data-name="Ellipse 54" cx="14.428" cy="14.428" r="14.428" transform="translate(753.266 185.34)" fill="#28a9ab"/>
        <circle id="Ellipse_55" data-name="Ellipse 55" cx="6.651" cy="6.651" r="6.651" transform="translate(790.151 193.257)" fill="#f6c453" stroke="#fff" stroke-miterlimit="10" stroke-width="2.178"/>
        <circle id="Ellipse_56" data-name="Ellipse 56" cx="29.47" cy="29.47" r="29.47" transform="translate(736.904 110.568)" fill="#fff" stroke="#1c1c1c" stroke-miterlimit="10" stroke-width="5.444"/>
        <circle id="Ellipse_57" data-name="Ellipse 57" cx="14.428" cy="14.428" r="14.428" transform="translate(751.946 125.61)" fill="#28a9ab"/>
        <circle id="Ellipse_58" data-name="Ellipse 58" cx="6.651" cy="6.651" r="6.651" transform="translate(788.832 133.433)" fill="#f6c453" stroke="#fff" stroke-miterlimit="10" stroke-width="2.178"/>
        <circle id="Ellipse_59" data-name="Ellipse 59" cx="29.47" cy="29.47" r="29.47" transform="translate(738.987 52.009)" fill="#fff" stroke="#1c1c1c" stroke-miterlimit="10" stroke-width="5.444"/>
        <circle id="Ellipse_60" data-name="Ellipse 60" cx="14.428" cy="14.428" r="14.428" transform="translate(754.029 67.051)" fill="#28a9ab"/>
        <circle id="Ellipse_61" data-name="Ellipse 61" cx="6.651" cy="6.651" r="6.651" transform="translate(761.043 103.82)" fill="#f6c453" stroke="#fff" stroke-miterlimit="10" stroke-width="2.178"/>
        <circle id="Ellipse_62" data-name="Ellipse 62" cx="6.651" cy="6.651" r="6.651" transform="translate(791.28 72.209)" fill="#f6c453" stroke="#fff" stroke-miterlimit="10" stroke-width="2.178"/>
        <circle id="Ellipse_63" data-name="Ellipse 63" cx="6.651" cy="6.651" r="6.651" transform="translate(759.723 163.205)" fill="#f6c453" stroke="#fff" stroke-miterlimit="10" stroke-width="2.178"/>
        <circle id="Ellipse_64" data-name="Ellipse 64" cx="6.651" cy="6.651" r="6.651" transform="translate(759.723 222.11)" fill="#f6c453" stroke="#fff" stroke-miterlimit="10" stroke-width="2.178"/>
        <circle id="Ellipse_65" data-name="Ellipse 65" cx="6.651" cy="6.651" r="6.651" transform="translate(729.505 253.086)" fill="#f6c453" stroke="#fff" stroke-miterlimit="10" stroke-width="2.178"/>
        <circle id="Ellipse_66" data-name="Ellipse 66" cx="6.651" cy="6.651" r="6.651" transform="translate(729.588 194.62)" fill="#f6c453" stroke="#fff" stroke-miterlimit="10" stroke-width="2.178"/>
        <circle id="Ellipse_67" data-name="Ellipse 67" cx="6.651" cy="6.651" r="6.651" transform="translate(728.269 134.796)" fill="#f6c453" stroke="#fff" stroke-miterlimit="10" stroke-width="2.178"/>
        <circle id="Ellipse_68" data-name="Ellipse 68" cx="6.651" cy="6.651" r="6.651" transform="translate(730.717 73.573)" fill="#f6c453" stroke="#fff" stroke-miterlimit="10" stroke-width="2.178"/>
    </g>
</svg>
